# xmcd
#
# Track frame offsets:
#	150
#	7899
#	20339
#	32347
#	44106
#	55138
#	66939
#	78295
#	95642
#	107342
#	121182
#	135865
#	150688
#	166449
#	180073
#	194804
#	209361
#	228297
#	242787
#	253443
#
# Disc length: 3589 seconds
#
# Revision: 1
# Processed by: cddbd v1.5.2PL0 Copyright (c) Steve Scherf et al.
# Submitted via: audiograbber 1.83.01
#
DISCID=020e0314
DTITLE=Jacobs Brothers - 20 Years Of Gospel Music
DYEAR=1900
DGENRE=Gospel
TTITLE0=Springs Of Living Water
TTITLE1=Old Time Religion
TTITLE2=It's Different Now
TTITLE3=How Great Thou Art
TTITLE4=He Touched Me
TTITLE5=Heaven Came Down
TTITLE6=Wings Of A Dove
TTITLE7=He Washed My Eyes With Tears
TTITLE8=Sweet Sweet Spirit
TTITLE9=In The Garden
TTITLE10=Redemption Draweth Nigh
TTITLE11=Through It All
TTITLE12=Ten Thousand Years
TTITLE13=One Day At A Time
TTITLE14=There's A Whole Lotta People Goin' Home
TTITLE15=Forgiven
TTITLE16=Rise Again
TTITLE17=Born Again
TTITLE18=The Promised Land
TTITLE19=It Won't Be Long, Jesus Is Coming
EXTD=
EXTT0=
EXTT1=
EXTT2=
EXTT3=
EXTT4=
EXTT5=
EXTT6=
EXTT7=
EXTT8=
EXTT9=
EXTT10=
EXTT11=
EXTT12=
EXTT13=
EXTT14=
EXTT15=
EXTT16=
EXTT17=
EXTT18=
EXTT19=
PLAYORDER=
